<svg version="1.1" id="Layer_1" xmlns="http://www.w3.org/2000/svg" xmlns:xlink="http://www.w3.org/1999/xlink" x="0px" y="0px"
	 width="100%" viewBox="0 0 225 225" enable-background="new 0 0 225 225" xml:space="preserve">
<path fill="#FFFFFF" opacity="1.000000" stroke="none" 
	d="
M226.000000,183.000000 
	C226.000000,197.666672 226.000000,211.833328 226.000000,226.000000 
	C151.000000,226.000000 76.000000,226.000000 1.000000,226.000000 
	C1.000000,151.000000 1.000000,76.000000 1.000000,1.000000 
	C76.000000,1.000000 151.000000,1.000000 226.000000,1.000000 
	C226.000000,61.500000 226.000000,122.000000 226.000000,183.000000 
M183.822128,179.253616 
	C183.774078,178.477448 183.726013,177.701263 183.862900,176.015732 
	C183.809418,170.009308 183.755936,164.002869 183.863907,157.071884 
	C183.817673,150.028290 183.771423,142.984680 183.881195,135.259918 
	C183.649124,134.644821 183.417068,134.029724 183.641693,132.821976 
	C183.645981,131.838669 183.650253,130.855347 183.837250,129.110519 
	C183.796005,124.066422 183.754761,119.022331 183.852646,113.073006 
	C183.808990,109.706093 183.765350,106.339188 183.855637,102.505371 
	C183.855637,102.505371 183.728256,102.036629 183.862305,101.206108 
	C183.804581,97.808342 183.746857,94.410576 183.852264,90.214722 
	C183.811172,89.132996 183.770081,88.051270 183.858902,86.511490 
	C183.858902,86.511490 183.735840,86.051544 183.874039,85.132584 
	C183.816772,81.422569 183.759521,77.712555 183.865067,73.078247 
	C183.806244,66.714684 183.747421,60.351116 183.840897,53.138706 
	C183.801544,51.416637 183.762192,49.694565 183.870636,47.505836 
	C183.870636,47.505836 183.733887,47.035824 183.864670,46.202644 
	C183.804962,44.803551 183.745239,43.404457 183.852615,41.139572 
	C183.791046,39.088501 183.729477,37.037434 183.830978,34.208679 
	C183.168777,25.643589 179.597855,22.046995 171.394470,22.039120 
	C132.682358,22.001955 93.970154,21.991224 55.258099,22.047926 
	C46.981468,22.060047 42.941933,26.598515 43.151031,35.856045 
	C43.205471,38.217808 43.259907,40.579575 43.144962,43.747028 
	C43.179005,44.841328 43.213047,45.935627 43.124516,47.503773 
	C43.124516,47.503773 43.275841,47.969231 43.152431,48.823318 
	C43.205421,50.544975 43.258408,52.266636 43.128185,54.909660 
	C43.184704,61.273758 43.241226,67.637856 43.132347,74.911240 
	C43.176270,78.623764 43.220196,82.336288 43.141079,86.508736 
	C43.141079,86.508736 43.271000,86.966766 43.139557,87.770973 
	C43.196663,88.851929 43.253769,89.932884 43.145023,91.736244 
	C43.187267,95.168800 43.229515,98.601357 43.144344,102.502625 
	C43.144344,102.502625 43.278278,102.969521 43.145916,103.880356 
	C43.192894,107.245850 43.239868,110.611351 43.105896,114.894897 
	C43.185760,119.887428 43.265621,124.879951 43.224499,130.591843 
	C43.409546,131.523590 43.594589,132.455338 43.291557,133.751862 
	C43.285934,134.149261 43.280312,134.546646 43.130569,135.877701 
	C43.188938,143.218628 43.247311,150.559540 43.145920,158.830856 
	C43.197880,162.885498 43.249836,166.940125 43.130863,171.895920 
	C43.194458,175.242340 43.258053,178.588760 43.169041,182.839630 
	C43.220432,185.884506 43.271824,188.929367 43.142094,192.726578 
	C43.374920,193.962021 43.607746,195.197479 43.818668,197.138794 
	C46.052895,203.002899 48.873341,204.949844 55.527126,204.959381 
	C76.631958,204.989609 97.736862,204.970749 118.841736,204.970734 
	C136.456833,204.970703 154.071991,205.000259 171.686966,204.955215 
	C178.422852,204.937973 181.742294,202.386047 183.638229,195.790253 
	C183.650116,194.520874 183.662018,193.251495 183.831177,191.075348 
	C183.770294,187.388748 183.709427,183.702133 183.822128,179.253616 
z"/>
<path fill="#3367FF" opacity="1.000000" stroke="none" 
	d="
M183.667892,34.986362 
	C183.729477,37.037434 183.791046,39.088501 183.436493,41.664661 
	C181.513306,44.366066 182.070679,49.082718 177.001862,46.708538 
	C176.247940,45.398529 175.594131,44.379410 174.731567,42.985096 
	C173.572556,42.405880 172.622467,42.024189 171.672073,42.023438 
	C133.105667,41.992867 94.539215,41.983402 55.972912,42.052979 
	C54.667198,42.055336 53.362995,42.897564 51.896572,43.610901 
	C51.122639,44.915466 50.510220,45.957443 49.530243,47.000572 
	C47.900955,47.064903 46.639225,47.128082 46.086037,47.155781 
	C44.988014,45.486206 44.151180,44.213772 43.314346,42.941338 
	C43.259907,40.579575 43.205471,38.217808 43.648529,35.423714 
	C46.056629,34.990978 47.967232,34.990574 50.090515,35.386917 
	C50.772587,35.911766 51.241993,36.152069 51.711361,36.152004 
	C92.371300,36.146133 133.031250,36.130741 173.691071,36.052185 
	C174.835464,36.049976 175.978500,35.359634 177.533325,34.993210 
	C179.852264,34.992958 181.760086,34.989658 183.667892,34.986362 
z"/>
<path fill="#C027FF" opacity="1.000000" stroke="none" 
	d="
M183.168121,196.413803 
	C181.742294,202.386047 178.422852,204.937973 171.686966,204.955215 
	C154.071991,205.000259 136.456833,204.970703 118.841736,204.970734 
	C97.736862,204.970749 76.631958,204.989609 55.527126,204.959381 
	C48.873341,204.949844 46.052895,203.002899 43.882053,196.340302 
	C43.978012,194.364975 44.010586,193.188141 44.383984,192.163483 
	C46.443859,192.544830 48.162903,192.774017 49.955498,193.335907 
	C50.696674,195.038681 51.364300,196.408783 52.273705,198.128372 
	C53.479023,198.651886 54.442406,198.976913 55.406116,198.977890 
	C82.697800,199.005585 109.989548,199.013062 137.281158,198.960526 
	C138.513046,198.958160 139.743790,198.364670 141.160614,197.893799 
	C141.597214,197.536285 141.805847,197.294861 142.254990,196.790131 
	C142.704086,195.367538 142.870270,194.171600 143.404053,192.981964 
	C145.167053,192.657944 146.562454,192.327637 147.996704,192.375702 
	C148.238571,194.198578 148.441574,195.643051 148.719086,197.329865 
	C148.861343,197.727051 148.929123,197.881897 149.294312,198.329819 
	C156.712677,198.748932 163.833603,198.940491 170.954575,198.942749 
	C172.292496,198.943176 173.630630,198.187897 175.072388,197.542816 
	C175.691299,196.852768 176.206497,196.401260 177.036926,195.795929 
	C177.579208,194.756851 177.806290,193.871613 178.401733,192.990448 
	C180.170761,192.667755 181.571396,192.340988 182.981949,192.451523 
	C183.050613,194.063828 183.109360,195.238815 183.168121,196.413803 
z"/>
<path fill="#256AFF" opacity="1.000000" stroke="none" 
	d="
M49.877831,34.990170 
	C47.967232,34.990574 46.056629,34.990978 43.739204,34.988739 
	C42.941933,26.598515 46.981468,22.060047 55.258099,22.047926 
	C93.970154,21.991224 132.682358,22.001955 171.394470,22.039120 
	C179.597855,22.046995 183.168777,25.643589 183.749435,34.597519 
	C181.760086,34.989658 179.852264,34.992958 177.455353,34.640446 
	C176.295776,32.606655 175.625336,30.928675 174.721436,28.895851 
	C173.529175,28.360332 172.570480,28.022324 171.611557,28.021650 
	C133.085495,27.994646 94.559402,27.985632 56.033436,28.050505 
	C54.703293,28.052742 53.374462,28.833096 51.863823,29.546223 
	C51.081032,31.557838 50.479431,33.274002 49.877831,34.990170 
z"/>
<path fill="#A63EFF" opacity="1.000000" stroke="none" 
	d="
M183.702454,157.996445 
	C183.755936,164.002869 183.809418,170.009308 183.538635,176.218292 
	C181.726700,174.380402 182.658875,170.021378 177.901428,170.778992 
	C177.503891,170.382263 177.225235,170.206528 176.484268,169.972046 
	C168.815399,169.892365 161.604263,169.724457 154.405457,169.950104 
	C152.522125,170.009140 150.677155,171.291229 148.443237,171.952896 
	C146.070496,171.599106 144.069061,171.304047 142.065826,170.651581 
	C143.991409,164.907593 147.858704,162.772003 153.514511,162.763123 
	C161.363098,162.750809 169.210953,162.274170 177.462128,161.998840 
	C180.772141,162.189362 183.278595,161.865082 183.178406,157.985077 
	C183.353119,157.986572 183.702454,157.996445 183.702454,157.996445 
z"/>
<path fill="#6B4AFF" opacity="1.000000" stroke="none" 
	d="
M183.721695,102.972275 
	C183.765350,106.339188 183.808990,109.706093 183.436218,113.629349 
	C182.453049,115.615173 181.886322,117.044655 181.197525,118.782028 
	C179.940750,118.843460 178.514587,118.913170 177.026794,118.519157 
	C177.011047,110.372292 177.056961,102.689140 177.501617,95.004471 
	C181.719360,96.414024 181.516830,91.990738 183.689148,91.012810 
	C183.746857,94.410576 183.804581,97.808342 183.664490,101.709915 
	C183.294098,102.536827 183.379120,102.789680 183.721695,102.972275 
z"/>
<path fill="#6B4AFF" opacity="1.000000" stroke="none" 
	d="
M43.271759,102.033913 
	C43.229515,98.601357 43.187267,95.168800 43.564789,91.468613 
	C45.131584,93.749458 46.502422,95.950180 49.951645,95.262146 
	C49.967804,95.688454 49.929443,95.858749 49.739532,96.118423 
	C49.698151,96.464783 49.808319,96.721764 49.998444,97.442535 
	C50.023521,103.946899 49.968647,109.987457 49.664467,116.238373 
	C49.270290,117.299408 49.125423,118.150085 48.584648,119.001472 
	C47.125790,118.159843 45.983826,117.397293 45.026096,116.448715 
	C44.321472,115.750839 43.857853,114.809624 43.286842,113.976845 
	C43.239868,110.611351 43.192894,107.245850 43.341515,103.334076 
	C43.705612,102.462296 43.617161,102.211006 43.271759,102.033913 
z"/>
<path fill="#8C44FF" opacity="1.000000" stroke="none" 
	d="
M43.305679,157.900467 
	C43.247311,150.559540 43.188938,143.218628 43.390530,135.195206 
	C43.693539,134.137497 43.736584,133.762299 43.779633,133.387085 
	C43.594589,132.455338 43.409546,131.523590 43.763237,130.273117 
	C45.851498,129.966080 47.401028,129.977783 49.059250,130.201202 
	C49.350445,130.688416 49.599472,130.875168 49.996521,131.351257 
	C50.026409,132.497177 49.974808,133.265045 49.657055,134.278412 
	C49.570644,136.339584 49.750389,138.155212 50.010410,140.425171 
	C50.042133,144.255997 49.993584,147.632507 49.706005,151.002167 
	C49.466980,150.995346 48.988747,150.998169 48.612595,150.997803 
	C46.851307,150.499481 45.466167,150.001526 44.297039,149.581238 
	C44.002163,152.055786 43.653923,154.978119 43.305679,157.900467 
z"/>
<path fill="#8C44FF" opacity="1.000000" stroke="none" 
	d="
M183.783173,157.534164 
	C183.702454,157.996445 183.353119,157.986572 183.175461,157.541443 
	C182.997803,154.430603 182.997803,151.764908 182.997803,149.769470 
	C181.124207,150.229019 179.573624,150.609360 177.784668,150.989227 
	C177.546295,150.988770 177.070038,151.010498 176.989639,150.556915 
	C176.962769,146.725784 177.016312,143.348251 177.341843,139.713470 
	C177.434814,137.315186 177.255798,135.174133 176.998505,132.655853 
	C176.975174,131.514252 177.030106,130.749863 177.329407,129.994263 
	C177.573792,130.003067 178.062836,130.002380 178.520813,129.998901 
	C180.537384,129.954300 182.095963,129.913162 183.654541,129.872040 
	C183.650253,130.855347 183.645981,131.838669 183.373383,133.458084 
	C183.311768,134.709824 183.518463,135.325455 183.725174,135.941086 
	C183.771423,142.984680 183.817673,150.028290 183.783173,157.534164 
z"/>
<path fill="#5958FF" opacity="1.000000" stroke="none" 
	d="
M49.897133,95.006126 
	C46.502422,95.950180 45.131584,93.749458 43.647713,91.107407 
	C43.253769,89.932884 43.196663,88.851929 43.333286,87.279755 
	C43.694122,86.466408 43.606487,86.219833 43.264118,86.048813 
	C43.220196,82.336288 43.176270,78.623764 43.495949,74.506264 
	C45.881050,74.734322 47.902554,75.367355 49.989532,76.464722 
	C50.002384,82.954742 49.949760,88.980438 49.897133,95.006126 
z"/>
<path fill="#5958FF" opacity="1.000000" stroke="none" 
	d="
M183.770691,90.613770 
	C181.516830,91.990738 181.719360,96.414024 177.425903,94.540649 
	C176.992966,88.052361 177.034454,82.026375 177.458832,76.000496 
	C179.795227,75.334587 181.748734,74.668564 183.702255,74.002541 
	C183.759521,77.712555 183.816772,81.422569 183.674957,85.677299 
	C183.306549,86.541420 183.390915,86.790596 183.728989,86.969543 
	C183.770081,88.051270 183.811172,89.132996 183.770691,90.613770 
z"/>
<path fill="#9F3BFF" opacity="1.000000" stroke="none" 
	d="
M43.225800,158.365662 
	C43.653923,154.978119 44.002163,152.055786 44.297039,149.581238 
	C45.466167,150.001526 46.851307,150.499481 48.616913,151.332733 
	C48.999783,152.114594 49.002182,152.561157 49.002296,153.444595 
	C49.306854,156.575485 49.613693,159.269501 50.001915,162.380310 
	C50.030243,164.207184 49.977196,165.617249 49.658577,167.261047 
	C49.240841,168.667587 49.088673,169.840424 48.532433,171.010101 
	C46.519508,171.002884 44.910652,170.998825 43.301796,170.994781 
	C43.249836,166.940125 43.197880,162.885498 43.225800,158.365662 
z"/>
<path fill="#4C63FF" opacity="1.000000" stroke="none" 
	d="
M183.783661,73.540390 
	C181.748734,74.668564 179.795227,75.334587 177.382355,75.538818 
	C176.981827,70.048271 177.040665,65.019531 177.512054,59.994831 
	C180.536636,60.270271 182.297684,59.709614 182.101303,56.464962 
	C182.053436,55.674080 183.129379,54.815182 183.688599,53.987556 
	C183.747421,60.351116 183.806244,66.714684 183.783661,73.540390 
z"/>
<path fill="#4C63FF" opacity="1.000000" stroke="none" 
	d="
M49.924057,76.000381 
	C47.902554,75.367355 45.881050,74.734322 43.578644,74.051620 
	C43.241226,67.637856 43.184704,61.273758 43.569611,54.557514 
	C44.563347,55.960842 45.115654,57.716320 45.762653,59.772762 
	C47.063068,59.841286 48.481777,59.916039 49.979561,60.452682 
	C50.013779,65.943176 49.968918,70.971779 49.924057,76.000381 
z"/>
<path fill="#3B5FFF" opacity="1.000000" stroke="none" 
	d="
M183.764740,53.563133 
	C183.129379,54.815182 182.053436,55.674080 182.101303,56.464962 
	C182.297684,59.709614 180.536636,60.270271 177.442276,59.536739 
	C177.007278,55.049545 177.054626,51.024487 177.101974,46.999428 
	C182.070679,49.082718 181.513306,44.366066 183.352966,42.097557 
	C183.745239,43.404457 183.804962,44.803551 183.668137,46.707787 
	C183.296524,47.534508 183.380280,47.787697 183.722839,47.972496 
	C183.762192,49.694565 183.801544,51.416637 183.764740,53.563133 
z"/>
<path fill="#3B5FFF" opacity="1.000000" stroke="none" 
	d="
M49.900486,59.990795 
	C48.481777,59.916039 47.063068,59.841286 45.762653,59.772762 
	C45.115654,57.716320 44.563347,55.960842 43.661217,54.096832 
	C43.258408,52.266636 43.205421,50.544975 43.343307,48.302731 
	C43.695984,47.451878 43.600285,47.201138 43.247086,47.029926 
	C43.213047,45.935627 43.179005,44.841328 43.229652,43.344185 
	C44.151180,44.213772 44.988014,45.486206 46.086037,47.155781 
	C46.639225,47.128082 47.900955,47.064903 49.601097,47.459145 
	C49.993172,51.941307 49.946827,55.966049 49.900486,59.990795 
z"/>
<path fill="#8156FF" opacity="1.000000" stroke="none" 
	d="
M48.950554,129.989487 
	C47.401028,129.977783 45.851498,129.966080 43.823727,129.913437 
	C43.265621,124.879951 43.185760,119.887428 43.196369,114.435867 
	C43.857853,114.809624 44.321472,115.750839 45.026096,116.448715 
	C45.983826,117.397293 47.125790,118.159843 48.818989,119.002396 
	C49.449230,119.002609 49.916653,118.975662 50.002792,119.353401 
	C50.035057,120.499840 49.981186,121.268547 49.643585,122.312637 
	C49.223423,125.055183 49.086990,127.522331 48.950554,129.989487 
z"/>
<path fill="#8156FF" opacity="1.000000" stroke="none" 
	d="
M183.745895,129.491272 
	C182.095963,129.913162 180.537384,129.954300 178.503998,129.571640 
	C177.716461,126.779747 177.403732,124.411644 177.012863,121.664963 
	C176.985947,120.518547 177.037186,119.750717 177.088440,118.982880 
	C178.514587,118.913170 179.940750,118.843460 181.197525,118.782028 
	C181.886322,117.044655 182.453049,115.615173 183.366638,114.081970 
	C183.754761,119.022331 183.796005,124.066422 183.745895,129.491272 
z"/>
<path fill="#B32BFF" opacity="1.000000" stroke="none" 
	d="
M49.881950,193.003204 
	C48.162903,192.774017 46.443859,192.544830 44.203995,192.149384 
	C43.683174,191.983139 43.323215,191.974243 43.323215,191.974243 
	C43.271824,188.929367 43.220432,185.884506 43.442356,182.205475 
	C45.464214,181.707977 47.212761,181.844635 48.989891,182.269196 
	C49.306847,183.024536 49.595215,183.491974 49.954933,184.407471 
	C49.978172,187.571442 49.930061,190.287323 49.881950,193.003204 
z"/>
<path fill="#AF3CFF" opacity="1.000000" stroke="none" 
	d="
M48.961304,181.981277 
	C47.212761,181.844635 45.464214,181.707977 43.518661,181.753265 
	C43.258053,178.588760 43.194458,175.242340 43.216331,171.445343 
	C44.910652,170.998825 46.519508,171.002884 48.783936,171.013214 
	C49.606327,171.008347 49.773144,170.997208 50.021908,171.439331 
	C50.049225,175.266373 49.994591,178.640152 49.695606,181.996368 
	C49.451256,181.978821 48.961304,181.981277 48.961304,181.981277 
z"/>
<path fill="#B32BFF" opacity="1.000000" stroke="none" 
	d="
M182.972046,192.014206 
	C181.571396,192.340988 180.170761,192.667755 178.391586,192.534042 
	C178.010895,188.718552 178.008728,185.363541 178.368774,182.005585 
	C180.370178,181.340256 182.009369,180.677887 183.648544,180.015533 
	C183.709427,183.702133 183.770294,187.388748 183.576904,191.532288 
	C183.322647,191.989212 182.972046,192.014206 182.972046,192.014206 
z"/>
<path fill="#AD2CFF" opacity="1.000000" stroke="none" 
	d="
M183.735336,179.634583 
	C182.009369,180.677887 180.370178,181.340256 178.140808,182.004333 
	C177.550613,182.006058 177.095306,182.026886 177.011261,181.572845 
	C176.983017,177.736664 177.038818,174.354492 177.325912,170.984100 
	C177.557190,170.995880 178.020325,171.000000 178.020325,171.000000 
	C182.658875,170.021378 181.726700,174.380402 183.446152,176.672974 
	C183.726013,177.701263 183.774078,178.477448 183.735336,179.634583 
z"/>
<path fill="#A63EFF" opacity="1.000000" stroke="none" 
	d="
M182.981949,192.451523 
	C182.972046,192.014206 183.322647,191.989212 183.498276,191.985657 
	C183.662018,193.251495 183.650116,194.520874 183.403168,196.102020 
	C183.109360,195.238815 183.050613,194.063828 182.981949,192.451523 
z"/>
<path fill="#AF3CFF" opacity="1.000000" stroke="none" 
	d="
M43.232655,192.350403 
	C43.323215,191.974243 43.683174,191.983139 43.863167,191.997223 
	C44.010586,193.188141 43.978012,194.364975 43.893005,195.987366 
	C43.607746,195.197479 43.374920,193.962021 43.232655,192.350403 
z"/>
<path fill="#8156FF" opacity="1.000000" stroke="none" 
	d="
M183.803192,135.600494 
	C183.518463,135.325455 183.311768,134.709824 183.145035,133.754410 
	C183.417068,134.029724 183.649124,134.644821 183.803192,135.600494 
z"/>
<path fill="#8156FF" opacity="1.000000" stroke="none" 
	d="
M43.208054,102.268265 
	C43.617161,102.211006 43.705612,102.462296 43.407700,102.878654 
	C43.278278,102.969521 43.144344,102.502625 43.208054,102.268265 
z"/>
<path fill="#4C63FF" opacity="1.000000" stroke="none" 
	d="
M43.185802,47.266850 
	C43.600285,47.201138 43.695984,47.451878 43.405010,47.875687 
	C43.275841,47.969231 43.124516,47.503773 43.185802,47.266850 
z"/>
<path fill="#4C63FF" opacity="1.000000" stroke="none" 
	d="
M183.796738,47.739166 
	C183.380280,47.787697 183.296524,47.534508 183.602753,47.124374 
	C183.733887,47.035824 183.870636,47.505836 183.796738,47.739166 
z"/>
<path fill="#8156FF" opacity="1.000000" stroke="none" 
	d="
M43.535591,133.569473 
	C43.736584,133.762299 43.693539,134.137497 43.462585,134.728378 
	C43.280312,134.546646 43.285934,134.149261 43.535591,133.569473 
z"/>
<path fill="#8156FF" opacity="1.000000" stroke="none" 
	d="
M183.788666,102.738823 
	C183.379120,102.789680 183.294098,102.536827 183.597458,102.125168 
	C183.728256,102.036629 183.855637,102.505371 183.788666,102.738823 
z"/>
<path fill="#8156FF" opacity="1.000000" stroke="none" 
	d="
M183.793945,86.740517 
	C183.390915,86.790596 183.306549,86.541420 183.605865,86.136780 
	C183.735840,86.051544 183.858902,86.511490 183.793945,86.740517 
z"/>
<path fill="#8156FF" opacity="1.000000" stroke="none" 
	d="
M43.202599,86.278778 
	C43.606487,86.219833 43.694122,86.466408 43.399010,86.877647 
	C43.271000,86.966766 43.141079,86.508736 43.202599,86.278778 
z"/>
<path fill="#FEFDFF" opacity="1.000000" stroke="none" 
	d="
M49.939957,182.013931 
	C49.994591,178.640152 50.049225,175.266373 50.071976,171.045197 
	C50.001446,169.140976 49.962799,168.084152 49.924149,167.027328 
	C49.977196,165.617249 50.030243,164.207184 50.057976,161.935898 
	C49.981297,158.386703 49.929932,155.698730 49.949448,152.681351 
	C49.995224,151.904312 49.970127,151.456650 49.945030,151.009003 
	C49.993584,147.632507 50.042133,144.255997 50.066826,140.003723 
	C50.003048,137.429611 49.963127,135.731247 49.923206,134.032898 
	C49.974808,133.265045 50.026409,132.497177 50.054440,130.907349 
	C49.996353,127.402657 49.961834,124.719948 49.927319,122.037247 
	C49.981186,121.268547 50.035057,120.499840 50.054565,118.986572 
	C49.984726,117.504013 49.949253,116.766014 49.913773,116.028023 
	C49.968647,109.987457 50.023521,103.946899 50.046234,97.203552 
	C50.014080,96.500763 49.891087,96.029053 49.891087,96.029053 
	C49.929443,95.858749 49.967804,95.688454 49.951649,95.262146 
	C49.949760,88.980438 50.002384,82.954742 49.989532,76.464722 
	C49.968918,70.971779 50.013779,65.943176 49.979561,60.452682 
	C49.946827,55.966049 49.993172,51.941307 49.968658,47.457993 
	C50.510220,45.957443 51.122639,44.915466 52.353661,43.515980 
	C92.970413,43.127071 132.968567,43.094250 172.966721,43.076645 
	C173.624557,43.076355 174.282471,43.261616 174.940338,43.360291 
	C175.594131,44.379410 176.247940,45.398529 177.001862,46.708538 
	C177.054626,51.024487 177.007278,55.049545 177.029724,59.532696 
	C177.040665,65.019531 176.981827,70.048271 176.999481,75.538696 
	C177.034454,82.026375 176.992966,88.052361 177.027176,94.542175 
	C177.056961,102.689140 177.011047,110.372292 177.026794,118.519157 
	C177.037186,119.750717 176.985947,120.518547 176.952454,122.102066 
	C177.008469,125.273659 177.046738,127.629562 177.085022,129.985474 
	C177.030106,130.749863 176.975174,131.514252 176.939346,133.086273 
	C176.995590,135.919510 177.032715,137.945114 177.069855,139.970703 
	C177.016312,143.348251 176.962769,146.725784 176.935974,150.881744 
	C177.012619,152.093842 177.062546,152.527527 177.040924,153.408813 
	C176.999298,156.569702 177.029221,159.283005 177.059143,161.996323 
	C169.210953,162.274170 161.363098,162.750809 153.514511,162.763123 
	C147.858704,162.772003 143.991409,164.907593 141.966553,171.096954 
	C141.920288,174.941391 141.971497,177.983063 141.958725,181.485657 
	C141.920532,186.970001 141.946320,191.993393 141.972092,197.016800 
	C141.805847,197.294861 141.597214,197.536285 140.694595,197.866913 
	C110.705986,197.921448 81.368950,197.850159 52.031921,197.778870 
	C51.364300,196.408783 50.696674,195.038681 49.955498,193.335907 
	C49.930061,190.287323 49.978172,187.571442 50.026268,184.087341 
	C49.997490,182.884048 49.968727,182.448990 49.939957,182.013931 
M89.803246,76.782982 
	C89.803246,76.782982 89.711838,76.655251 89.186302,76.808647 
	C89.009834,77.114281 88.833366,77.419914 88.798012,77.738701 
	C88.798012,77.738701 88.717712,77.621910 88.173744,77.763023 
	C87.817192,78.181915 87.460640,78.600807 86.479279,79.323158 
	C84.937798,80.769882 83.396317,82.216606 82.307289,83.238686 
	C76.291367,81.443199 74.399223,71.254959 64.645592,76.928139 
	C69.604668,81.682495 73.595184,85.861099 77.973602,89.583443 
	C80.954323,92.117523 84.282486,91.298233 86.949265,88.677025 
	C91.083031,84.613914 95.064430,80.395798 99.714516,75.931519 
	C103.544548,72.564407 107.374588,69.197296 111.434433,65.628143 
	C108.714211,63.094627 107.211906,61.695431 105.462112,60.065735 
	C100.259773,65.518410 95.451714,70.557823 90.641190,75.669662 
	C90.641190,75.669662 90.712219,75.655342 90.186485,75.808601 
	C90.009979,76.114319 89.833481,76.420036 89.803246,76.782982 
M121.194290,79.015678 
	C121.108032,80.019089 121.021774,81.022491 120.755035,82.668655 
	C120.812347,83.106049 120.869659,83.543434 120.944817,84.585350 
	C121.296051,84.722031 121.647278,84.858711 122.922379,85.170967 
	C135.615372,85.112434 148.308380,85.053902 161.567184,84.999725 
	C161.677124,84.674202 161.787064,84.348679 161.996140,83.219765 
	C161.975693,82.141487 161.955261,81.063210 162.062302,79.356331 
	C161.735275,79.132820 161.408249,78.909302 160.319504,78.369720 
	C147.513565,78.474815 134.707642,78.579910 121.194290,79.015678 
M160.317917,64.284729 
	C147.510406,64.371323 134.702881,64.457916 121.259491,64.766838 
	C121.154640,65.183914 121.049789,65.600990 120.767227,66.799126 
	C120.824593,67.861031 120.881950,68.922928 120.931831,70.592834 
	C121.286446,70.722130 121.641060,70.851425 122.923500,71.130463 
	C135.619049,71.068787 148.314606,71.007111 161.551758,70.959099 
	C161.657761,70.648285 161.763748,70.337479 161.985962,69.226303 
	C161.979904,68.148277 161.973831,67.070251 162.145233,65.317284 
	C161.799072,65.057655 161.452911,64.798027 160.317917,64.284729 
M92.943787,129.142105 
	C89.611877,133.040955 86.279961,136.939804 82.366447,141.519226 
	C77.785400,136.221603 74.431709,132.343323 70.525269,127.825821 
	C68.524345,130.144440 67.146515,131.741043 64.920723,134.320221 
	C68.750130,137.773651 72.539497,141.212830 76.353516,144.624435 
	C80.220428,148.083359 83.537079,148.204742 87.322472,144.574844 
	C91.745750,140.333282 95.907654,135.819138 100.771660,131.063339 
	C104.025589,127.892151 107.279526,124.720970 110.036682,122.033936 
	C108.473145,119.671814 107.333672,117.950333 106.387131,116.520348 
	C101.572968,121.141106 97.544632,125.007599 92.943787,129.142105 
M162.407639,135.210861 
	C152.636932,134.991226 142.866699,134.745132 133.095276,134.564514 
	C129.001434,134.488831 124.905045,134.551926 120.421883,134.551926 
	C120.573845,137.364487 120.685089,139.423477 120.787979,141.327911 
	C135.108826,141.327911 148.824387,141.327911 162.754379,141.327911 
	C162.754379,139.286560 162.754379,137.638550 162.407639,135.210861 
M161.953644,121.608070 
	C160.387634,121.316231 158.823761,120.786026 157.255249,120.771919 
	C148.257660,120.690956 139.258942,120.732498 130.260620,120.732468 
	C127.170372,120.732460 124.080124,120.732460 121.021072,120.732460 
	C121.021072,123.291641 121.021072,125.057869 121.021072,127.092941 
	C134.709167,127.092941 148.117706,127.092941 161.985367,127.092941 
	C161.985367,125.458580 161.985367,124.016434 161.953644,121.608070 
z"/>
<path fill="#FDFDFF" opacity="1.000000" stroke="none" 
	d="
M50.090515,35.386917 
	C50.479431,33.274002 51.081032,31.557838 52.324715,29.472744 
	C82.346779,29.075241 111.726768,29.022673 141.106735,29.030245 
	C152.389465,29.033152 163.672180,29.173157 174.954895,29.250690 
	C175.625336,30.928675 176.295776,32.606655 177.044205,34.637398 
	C175.978500,35.359634 174.835464,36.049976 173.691071,36.052185 
	C133.031250,36.130741 92.371300,36.146133 51.711361,36.152004 
	C51.241993,36.152069 50.772587,35.911766 50.090515,35.386917 
z"/>
<path fill="#1155FF" opacity="1.000000" stroke="none" 
	d="
M174.731567,42.985096 
	C174.282471,43.261616 173.624557,43.076355 172.966721,43.076645 
	C132.968567,43.094250 92.970413,43.127071 52.515175,43.253395 
	C53.362995,42.897564 54.667198,42.055336 55.972912,42.052979 
	C94.539215,41.983402 133.105667,41.992867 171.672073,42.023438 
	C172.622467,42.024189 173.572556,42.405880 174.731567,42.985096 
z"/>
<path fill="#FDFCFF" opacity="1.000000" stroke="none" 
	d="
M177.094635,170.972336 
	C177.038818,174.354492 176.983017,177.736664 176.953110,182.031784 
	C176.893250,187.279739 176.807465,191.614746 176.721680,195.949738 
	C176.206497,196.401260 175.691299,196.852768 174.609283,197.606110 
	C165.693954,197.950867 157.345428,197.993805 148.996902,198.036743 
	C148.929123,197.881897 148.861343,197.727051 148.843475,196.898071 
	C148.798431,194.441269 148.703476,192.658646 148.641693,190.426086 
	C148.568375,186.663391 148.461884,183.350601 148.453003,179.768829 
	C148.486771,179.320068 148.422897,179.140289 148.484039,178.544464 
	C148.677551,176.089478 148.746063,174.050537 148.814560,172.011612 
	C150.677155,171.291229 152.522125,170.009140 154.405457,169.950104 
	C161.604263,169.724457 168.815399,169.892365 176.499939,170.210663 
	C176.977951,170.508011 177.094635,170.972336 177.094635,170.972336 
M155.955902,182.853073 
	C156.136948,185.982681 154.856750,189.799118 159.563629,190.855621 
	C167.229126,192.576172 170.359375,189.792877 169.806717,181.124954 
	C168.552689,180.073715 167.406921,178.330566 166.022293,178.113876 
	C163.050705,177.648834 159.955887,177.971222 156.370026,177.971222 
	C156.265320,179.224121 156.149796,180.606445 155.955902,182.853073 
z"/>
<path fill="#AD2CFF" opacity="1.000000" stroke="none" 
	d="
M148.355377,180.037811 
	C148.461884,183.350601 148.568375,186.663391 148.482391,190.578140 
	C148.137436,191.435532 148.026764,191.707932 147.957855,191.997314 
	C146.562454,192.327637 145.167053,192.657944 143.393982,192.527588 
	C142.685120,188.386169 142.353897,184.705460 142.022690,181.024734 
	C141.971497,177.983063 141.920288,174.941391 141.968369,171.454346 
	C144.069061,171.304047 146.070496,171.599106 148.443237,171.952896 
	C148.746063,174.050537 148.677551,176.089478 148.308746,178.583649 
	C148.124084,179.371857 148.239731,179.704834 148.355377,180.037811 
z"/>
<path fill="#B900FF" opacity="1.000000" stroke="none" 
	d="
M52.273705,198.128372 
	C81.368950,197.850159 110.705986,197.921448 140.509033,198.019623 
	C139.743790,198.364670 138.513046,198.958160 137.281158,198.960526 
	C109.989548,199.013062 82.697800,199.005585 55.406116,198.977890 
	C54.442406,198.976913 53.479023,198.651886 52.273705,198.128372 
z"/>
<path fill="#B900FF" opacity="1.000000" stroke="none" 
	d="
M149.294312,198.329819 
	C157.345428,197.993805 165.693954,197.950867 174.505585,197.844635 
	C173.630630,198.187897 172.292496,198.943176 170.954575,198.942749 
	C163.833603,198.940491 156.712677,198.748932 149.294312,198.329819 
z"/>
<path fill="#AC0AFF" opacity="1.000000" stroke="none" 
	d="
M141.958725,181.485657 
	C142.353897,184.705460 142.685120,188.386169 143.026398,192.521271 
	C142.870270,194.171600 142.704086,195.367538 142.254990,196.790131 
	C141.946320,191.993393 141.920532,186.970001 141.958725,181.485657 
z"/>
<path fill="#AC0AFF" opacity="1.000000" stroke="none" 
	d="
M177.036911,195.795929 
	C176.807465,191.614746 176.893250,187.279739 177.037170,182.485809 
	C177.095306,182.026886 177.550613,182.006058 177.778595,182.007294 
	C178.008728,185.363541 178.010895,188.718552 178.023209,192.529953 
	C177.806290,193.871613 177.579208,194.756851 177.036911,195.795929 
z"/>
<path fill="#C786FF" opacity="1.000000" stroke="none" 
	d="
M147.996704,192.375702 
	C148.026764,191.707932 148.137436,191.435532 148.449203,191.028046 
	C148.703476,192.658646 148.798431,194.441269 148.768982,196.655716 
	C148.441574,195.643051 148.238571,194.198578 147.996704,192.375702 
z"/>
<path fill="#005BFF" opacity="1.000000" stroke="none" 
	d="
M174.721436,28.895849 
	C163.672180,29.173157 152.389465,29.033152 141.106735,29.030245 
	C111.726768,29.022673 82.346779,29.075241 52.505909,29.177296 
	C53.374462,28.833096 54.703293,28.052742 56.033436,28.050505 
	C94.559402,27.985632 133.085495,27.994646 171.611557,28.021650 
	C172.570480,28.022324 173.529175,28.360332 174.721436,28.895849 
z"/>
<path fill="#9936FF" opacity="1.000000" stroke="none" 
	d="
M177.462143,161.998840 
	C177.029221,159.283005 176.999298,156.569702 177.269775,153.237274 
	C177.721130,152.075348 177.872086,151.532501 178.023026,150.989685 
	C179.573624,150.609360 181.124207,150.229019 182.997803,149.769470 
	C182.997803,151.764908 182.997803,154.430603 183.000732,157.539948 
	C183.278595,161.865082 180.772141,162.189362 177.462143,161.998840 
z"/>
<path fill="#AC0AFF" opacity="1.000000" stroke="none" 
	d="
M177.325912,170.984100 
	C177.094635,170.972336 176.977951,170.508011 176.962280,170.269409 
	C177.225235,170.206528 177.503891,170.382263 177.901428,170.778992 
	C178.020325,171.000000 177.557190,170.995880 177.325912,170.984100 
z"/>
<path fill="#6238FF" opacity="1.000000" stroke="none" 
	d="
M49.664467,116.238373 
	C49.949253,116.766014 49.984726,117.504013 49.968426,118.608833 
	C49.916653,118.975662 49.449230,119.002609 49.214890,119.001694 
	C49.125423,118.150085 49.270290,117.299408 49.664467,116.238373 
z"/>
<path fill="#6238FF" opacity="1.000000" stroke="none" 
	d="
M49.739532,96.118423 
	C49.891087,96.029053 50.014080,96.500763 49.966286,96.739754 
	C49.808319,96.721764 49.698151,96.464783 49.739532,96.118423 
z"/>
<path fill="#7F29FF" opacity="1.000000" stroke="none" 
	d="
M49.643585,122.312637 
	C49.961834,124.719948 49.996353,127.402657 49.972954,130.529282 
	C49.599472,130.875168 49.350445,130.688416 49.059250,130.201202 
	C49.086990,127.522331 49.223423,125.055183 49.643585,122.312637 
z"/>
<path fill="#7F29FF" opacity="1.000000" stroke="none" 
	d="
M49.657055,134.278412 
	C49.963127,135.731247 50.003048,137.429611 49.986549,139.549408 
	C49.750389,138.155212 49.570644,136.339584 49.657055,134.278412 
z"/>
<path fill="#7F29FF" opacity="1.000000" stroke="none" 
	d="
M49.706005,151.002167 
	C49.970127,151.456650 49.995224,151.904312 49.730957,152.678833 
	C49.441593,153.005692 49.004578,153.007706 49.004578,153.007706 
	C49.002182,152.561157 48.999783,152.114594 48.993065,151.333099 
	C48.988747,150.998169 49.466980,150.995346 49.706005,151.002167 
z"/>
<path fill="#7F29FF" opacity="1.000000" stroke="none" 
	d="
M177.329407,129.994263 
	C177.046738,127.629562 177.008469,125.273659 177.030609,122.480637 
	C177.403732,124.411644 177.716461,126.779747 178.046005,129.575119 
	C178.062836,130.002380 177.573792,130.003067 177.329407,129.994263 
z"/>
<path fill="#7F29FF" opacity="1.000000" stroke="none" 
	d="
M177.341843,139.713470 
	C177.032715,137.945114 176.995590,135.919510 177.017609,133.463501 
	C177.255798,135.174133 177.434814,137.315186 177.341843,139.713470 
z"/>
<path fill="#7F29FF" opacity="1.000000" stroke="none" 
	d="
M177.784668,150.989227 
	C177.872086,151.532501 177.721130,152.075348 177.341324,152.789703 
	C177.062546,152.527527 177.012619,152.093842 177.016373,151.335327 
	C177.070038,151.010498 177.546295,150.988770 177.784668,150.989227 
z"/>
<path fill="#9B18FF" opacity="1.000000" stroke="none" 
	d="
M49.002296,153.444595 
	C49.004578,153.007706 49.441593,153.005692 49.660080,153.008209 
	C49.929932,155.698730 49.981297,158.386703 49.976601,161.519104 
	C49.613693,159.269501 49.306854,156.575485 49.002296,153.444595 
z"/>
<path fill="#9B18FF" opacity="1.000000" stroke="none" 
	d="
M49.658581,167.261047 
	C49.962799,168.084152 50.001446,169.140976 49.990028,170.591919 
	C49.773144,170.997208 49.606327,171.008347 49.188007,171.016373 
	C49.088673,169.840424 49.240841,168.667587 49.658581,167.261047 
z"/>
<path fill="#9B18FF" opacity="1.000000" stroke="none" 
	d="
M49.695610,181.996368 
	C49.968727,182.448990 49.997490,182.884048 49.954918,183.639252 
	C49.595215,183.491974 49.306847,183.024536 48.989891,182.269196 
	C48.961304,181.981277 49.451256,181.978821 49.695610,181.996368 
z"/>
<path fill="#8B47FF" opacity="1.000000" stroke="none" 
	d="
M162.581009,135.600708 
	C162.754379,137.638550 162.754379,139.286560 162.754379,141.327911 
	C148.824387,141.327911 135.108826,141.327911 120.787979,141.327911 
	C120.685089,139.423477 120.573845,137.364487 120.421883,134.551926 
	C124.905045,134.551926 129.001434,134.488831 133.095276,134.564514 
	C142.866699,134.745132 152.636932,134.991226 162.581009,135.600708 
z"/>
<path fill="#873EFF" opacity="1.000000" stroke="none" 
	d="
M100.182953,131.423248 
	C95.907654,135.819138 91.745750,140.333282 87.322472,144.574844 
	C83.537079,148.204742 80.220428,148.083359 76.353516,144.624435 
	C72.539497,141.212830 68.750130,137.773651 64.920723,134.320221 
	C67.146515,131.741043 68.524345,130.144440 70.525269,127.825821 
	C74.431709,132.343323 77.785400,136.221603 82.366447,141.519226 
	C86.279961,136.939804 89.611877,133.040955 93.655449,129.043945 
	C96.305725,129.771606 98.244339,130.597427 100.182953,131.423248 
z"/>
<path fill="#465AFF" opacity="1.000000" stroke="none" 
	d="
M120.939316,69.984833 
	C120.881950,68.922928 120.824593,67.861031 121.112076,66.237480 
	C121.603065,65.298721 121.749214,64.921608 121.895370,64.544502 
	C134.702881,64.457916 147.510406,64.371323 160.758423,64.706039 
	C161.455200,65.415634 161.711487,65.703926 161.967758,65.992226 
	C161.973831,67.070251 161.979904,68.148277 161.736313,69.729095 
	C161.251678,70.418884 161.092850,70.656738 161.010162,70.945442 
	C148.314606,71.007111 135.619049,71.068787 122.346283,70.830887 
	C121.492493,70.349144 121.215904,70.166985 120.939316,69.984833 
z"/>
<path fill="#5654FF" opacity="1.000000" stroke="none" 
	d="
M161.001373,84.995361 
	C148.308380,85.053902 135.615372,85.112434 122.343796,84.856094 
	C121.485802,84.354424 121.206383,84.167625 120.926971,83.980827 
	C120.869659,83.543434 120.812347,83.106049 121.133896,82.117783 
	C121.642410,80.606270 121.772049,79.645638 121.901703,78.685005 
	C134.707642,78.579910 147.513565,78.474815 160.757324,78.794479 
	C161.441711,79.474472 161.688278,79.729698 161.934830,79.984932 
	C161.955261,81.063210 161.975693,82.141487 161.744812,83.729057 
	C161.248489,84.438026 161.084442,84.690369 161.001373,84.995361 
z"/>
<path fill="#5654FF" opacity="1.000000" stroke="none" 
	d="
M99.110435,76.243408 
	C95.064430,80.395798 91.083031,84.613914 86.949265,88.677025 
	C84.282486,91.298233 80.954323,92.117523 77.973602,89.583443 
	C73.595184,85.861099 69.604668,81.682495 64.645592,76.928139 
	C74.399223,71.254959 76.291367,81.443199 82.307289,83.238686 
	C83.396317,82.216606 84.937798,80.769882 87.096024,79.127762 
	C88.047745,78.495544 88.382729,78.058723 88.717712,77.621910 
	C88.717712,77.621910 88.798012,77.738701 89.027260,77.707573 
	C89.408287,77.336044 89.560066,76.995651 89.711838,76.655251 
	C89.711838,76.655251 89.803246,76.782982 90.029922,76.729759 
	C90.408470,76.336136 90.560341,75.995735 90.712219,75.655342 
	C90.712219,75.655342 90.641190,75.669662 91.020576,75.758636 
	C93.970123,75.979546 96.540276,76.111481 99.110435,76.243408 
z"/>
<path fill="#773FFF" opacity="1.000000" stroke="none" 
	d="
M161.969513,122.091179 
	C161.985367,124.016434 161.985367,125.458580 161.985367,127.092941 
	C148.117706,127.092941 134.709167,127.092941 121.021072,127.092941 
	C121.021072,125.057869 121.021072,123.291641 121.021072,120.732460 
	C124.080124,120.732460 127.170372,120.732460 130.260620,120.732468 
	C139.258942,120.732498 148.257660,120.690956 157.255249,120.771919 
	C158.823761,120.786026 160.387634,121.316231 161.969513,122.091179 
z"/>
<path fill="#475CFF" opacity="1.000000" stroke="none" 
	d="
M99.412476,76.087463 
	C96.540276,76.111481 93.970123,75.979546 91.021805,75.722427 
	C95.451714,70.557823 100.259773,65.518410 105.462112,60.065735 
	C107.211906,61.695431 108.714211,63.094627 111.434433,65.628143 
	C107.374588,69.197296 103.544548,72.564407 99.412476,76.087463 
z"/>
<path fill="#773FFF" opacity="1.000000" stroke="none" 
	d="
M100.477310,131.243286 
	C98.244339,130.597427 96.305725,129.771606 93.941704,128.909943 
	C97.544632,125.007599 101.572968,121.141106 106.387131,116.520348 
	C107.333672,117.950333 108.473145,119.671814 110.036682,122.033936 
	C107.279526,124.720970 104.025589,127.892151 100.477310,131.243286 
z"/>
<path fill="#4B4AFF" opacity="1.000000" stroke="none" 
	d="
M121.547989,78.850342 
	C121.772049,79.645638 121.642410,80.606270 121.224136,81.796402 
	C121.021774,81.022491 121.108032,80.019089 121.547989,78.850342 
z"/>
<path fill="#475CFF" opacity="1.000000" stroke="none" 
	d="
M88.445724,77.692467 
	C88.382729,78.058723 88.047745,78.495544 87.408432,78.976028 
	C87.460640,78.600807 87.817192,78.181915 88.445724,77.692467 
z"/>
<path fill="#4B4AFF" opacity="1.000000" stroke="none" 
	d="
M161.998566,79.670631 
	C161.688278,79.729698 161.441711,79.474472 161.138184,78.952515 
	C161.408249,78.909302 161.735275,79.132820 161.998566,79.670631 
z"/>
<path fill="#3C50FF" opacity="1.000000" stroke="none" 
	d="
M121.577423,64.655670 
	C121.749214,64.921608 121.603065,65.298721 121.200928,65.846954 
	C121.049789,65.600990 121.154640,65.183914 121.577423,64.655670 
z"/>
<path fill="#475CFF" opacity="1.000000" stroke="none" 
	d="
M89.449066,76.731949 
	C89.560066,76.995651 89.408287,77.336044 88.956696,77.700996 
	C88.833366,77.419914 89.009834,77.114281 89.449066,76.731949 
z"/>
<path fill="#4B4AFF" opacity="1.000000" stroke="none" 
	d="
M161.284271,84.997543 
	C161.084442,84.690369 161.248489,84.438026 161.695251,84.130753 
	C161.787064,84.348679 161.677124,84.674202 161.284271,84.997543 
z"/>
<path fill="#4B4AFF" opacity="1.000000" stroke="none" 
	d="
M120.935890,84.283089 
	C121.206383,84.167625 121.485802,84.354424 121.881866,84.768295 
	C121.647278,84.858711 121.296051,84.722031 120.935890,84.283089 
z"/>
<path fill="#3C50FF" opacity="1.000000" stroke="none" 
	d="
M162.056488,65.654755 
	C161.711487,65.703926 161.455200,65.415634 161.152832,64.832870 
	C161.452911,64.798027 161.799072,65.057655 162.056488,65.654755 
z"/>
<path fill="#3C50FF" opacity="1.000000" stroke="none" 
	d="
M120.935577,70.288834 
	C121.215904,70.166985 121.492493,70.349144 121.882370,70.756012 
	C121.641060,70.851425 121.286446,70.722130 120.935577,70.288834 
z"/>
<path fill="#475CFF" opacity="1.000000" stroke="none" 
	d="
M90.449356,75.731972 
	C90.560341,75.995735 90.408470,76.336136 89.956787,76.701141 
	C89.833481,76.420036 90.009979,76.114319 90.449356,75.731972 
z"/>
<path fill="#3C50FF" opacity="1.000000" stroke="none" 
	d="
M161.280960,70.952271 
	C161.092850,70.656738 161.251678,70.418884 161.678207,70.129272 
	C161.763748,70.337479 161.657761,70.648285 161.280960,70.952271 
z"/>
<path fill="#B5B8FF" opacity="1.000000" stroke="none" 
	d="
M169.686234,181.912140 
	C170.359375,189.792877 167.229126,192.576172 159.563629,190.855621 
	C154.856750,189.799118 156.136948,185.982681 156.455460,182.428452 
	C161.198761,181.973267 165.442490,181.942703 169.686234,181.912140 
z"/>
<path fill="#8AC1FF" opacity="1.000000" stroke="none" 
	d="
M169.746475,181.518555 
	C165.442490,181.942703 161.198761,181.973267 156.494644,181.996307 
	C156.149796,180.606445 156.265320,179.224121 156.370026,177.971222 
	C159.955887,177.971222 163.050705,177.648834 166.022293,178.113876 
	C167.406921,178.330566 168.552689,180.073715 169.746475,181.518555 
z"/>
<path fill="#A63EFF" opacity="1.000000" stroke="none" 
	d="
M148.453003,179.768829 
	C148.239731,179.704834 148.124084,179.371857 148.183731,178.999695 
	C148.422897,179.140289 148.486771,179.320068 148.453003,179.768829 
z"/>
</svg>